HIERARCHY
ROOT root
{
	OFFSET	0	13.1	24.9
	CHANNELS 6  Xposition Yposition Zposition Xrotation Yrotation Zrotation
	JOINT spine_1
	{
		OFFSET	0	9.99999	0
		CHANNELS 3  Xrotation Yrotation Zrotation
		JOINT spine_2
		{
			OFFSET	0	112	-10
			CHANNELS 3  Xrotation Yrotation Zrotation
			JOINT spine_3
			{
				OFFSET	0	206.5	19.3
				CHANNELS 3  Xrotation Yrotation Zrotation
				JOINT spine_4
				{
					OFFSET	0	110.4	14.6
					CHANNELS 3  Xrotation Yrotation Zrotation
					JOINT neck_1
					{
						OFFSET	0	71.8	-50.3
						CHANNELS 3  Xrotation Yrotation Zrotation
						JOINT neck_2
						{
							OFFSET	0	86.2	-25.8
							CHANNELS 3  Xrotation Yrotation Zrotation
							JOINT head_ee
							{
								OFFSET	0	179.8	-8.7
								CHANNELS 3  Xrotation Yrotation Zrotation
								End Site
								{
									OFFSET	1	0	0
								}
							}
						}
					}
					JOINT left_clavicle
					{
						OFFSET	-43.2	22.4	-70.8
						CHANNELS 3  Xrotation Yrotation Zrotation
						JOINT left_shoulder
						{
							OFFSET	-93.9	-5.79999	48.7
							CHANNELS 3  Xrotation Yrotation Zrotation
							JOINT left_elbow
							{
								OFFSET	-291.4	-30.8	15.2
								CHANNELS 3  Xrotation Yrotation Zrotation
								JOINT left_lowarm_twist
								{
									OFFSET	-110.7	-3.89999	13.6
									CHANNELS 3  Xrotation Yrotation Zrotation
									JOINT left_hand
									{
										OFFSET	-110.7	-3.89999	13.6
										CHANNELS 3  Xrotation Yrotation Zrotation
										JOINT left_ee
										{
											OFFSET	-80.8	-5.10001	12.1
											CHANNELS 3  Xrotation Yrotation Zrotation
											End Site
											{
												OFFSET	1	0	0
											}
										}
									}
								}
							}
						}
					}
					JOINT right_clavicle
					{
						OFFSET	43.2	22.4	-70.8
						CHANNELS 3  Xrotation Yrotation Zrotation
						JOINT right_shoulder
						{
							OFFSET	93.9	-5.79999	48.7
							CHANNELS 3  Xrotation Yrotation Zrotation
							JOINT right_elbow
							{
								OFFSET	291.4	-30.8	15.2
								CHANNELS 3  Xrotation Yrotation Zrotation
								JOINT right_lowarm_twist
								{
									OFFSET	110.7	-3.89999	13.6
									CHANNELS 3  Xrotation Yrotation Zrotation
									JOINT right_hand
									{
										OFFSET	110.7	-3.89999	13.6
										CHANNELS 3  Xrotation Yrotation Zrotation
										JOINT right_ee
										{
											OFFSET	80.8	-5.10001	12.1
											CHANNELS 3  Xrotation Yrotation Zrotation
											End Site
											{
												OFFSET	1	0	0
											}
										}
									}
								}
							}
						}
					}
				}
			}
		}
	}
	JOINT left_hip
	{
		OFFSET	-82.8	-127.5	0.300001
		CHANNELS 3  Xrotation Yrotation Zrotation
		JOINT left_knee
		{
			OFFSET	-28.2	-396.7	2.2
			CHANNELS 3  Xrotation Yrotation Zrotation
			JOINT left_ankle
			{
				OFFSET	-11.7	-411.3	35.4
				CHANNELS 3  Xrotation Yrotation Zrotation
				JOINT left_toes
				{
					OFFSET	0	-60	-88.6
					CHANNELS 3  Xrotation Yrotation Zrotation
					JOINT left_foot_ee
					{
						OFFSET	-22.5	-16.5	-42.2
						CHANNELS 3  Xrotation Yrotation Zrotation
						End Site
						{
							OFFSET	1	0	0
						}
					}
				}
			}
		}
	}
	JOINT right_hip
	{
		OFFSET	82.8	-127.5	0.300001
		CHANNELS 3  Xrotation Yrotation Zrotation
		JOINT right_knee
		{
			OFFSET	28.2	-396.7	2.2
			CHANNELS 3  Xrotation Yrotation Zrotation
			JOINT right_ankle
			{
				OFFSET	11.7	-411.3	35.4
				CHANNELS 3  Xrotation Yrotation Zrotation
				JOINT right_toes
				{
					OFFSET	0	-60	-88.6
					CHANNELS 3  Xrotation Yrotation Zrotation
					JOINT right_foot_ee
					{
						OFFSET	22.5	-16.5	-42.2
						CHANNELS 3  Xrotation Yrotation Zrotation
						End Site
						{
							OFFSET	1	0	0
						}
					}
				}
			}
		}
	}
}
MOTION
Frames: 8
Frame Time: 0.02
1812.96 636.059 -1623.16 -104.913 75.8614 102.501 2.25908 0.627432 2.09434 2.26138 0.492923 2.13 2.27964 0.121343 2.1829 2.27329 0.464489 2.13638 -8.20747 8.29054 2.98896 -8.21104 13.3944 4.78876 -0.0 0.0 -0.0 -0.936118 21.2701 1.13337 -27.6226 2.13346 68.3959 0.280321 -7.90587 0.0193706 67.4138 -2.47653 -7.74759 -6.43659 29.2962 -23.891 -0.0 0.0 -0.0 10.8488 3.44683 -21.5943 17.8465 17.4659 -79.949 1.88885 43.0925 -0.745856 -13.618 0.673654 -1.60153 1.41124 4.44263 -7.64636 0.0 0.0 0.0 45.3563 10.9652 -5.15951 -6.25166 0.206454 0.93676 -8.95399 -29.3303 1.69192 -2.24417 0.0 0.0 -0.0 0.0 -0.0 -9.52241 -11.9726 1.26123 -10.3018 -0.285172 -1.55315 31.088 18.0182 4.3807 -16.8045 0.0 0.0 0.0 0.0 0.0 
1796.07 639.988 -1618.03 -102.499 75.8016 99.5556 2.244 0.693509 2.41648 2.24708 0.538384 2.45568 2.27006 0.110047 2.51157 2.26162 0.5052 2.46272 -6.73652 9.74705 3.92097 -6.6992 15.2542 5.85951 -0.0 0.0 -0.0 -0.810562 20.6996 1.23663 -26.6011 2.90147 69.1831 0.319388 -8.99076 0.0251106 70.2188 -2.76311 -7.96524 -6.15226 29.1126 -22.3516 -0.0 0.0 -0.0 10.8614 3.32724 -21.6166 15.8047 16.9158 -80.1207 1.87412 42.8688 -0.735813 -13.3743 0.658296 -1.57438 1.17287 3.90298 -6.25432 0.0 0.0 0.0 45.7366 10.1244 -4.72207 -8.66025 0.258522 1.30268 -9.55865 -28.407 1.78569 -0.0151251 0.0 0.0 -0.0 0.0 -0.0 -10.4091 -11.8798 2.10204 -8.61746 -0.257732 -1.29616 29.0893 18.3748 4.16614 -18.6239 0.0 0.0 0.0 0.0 0.0 
1778.09 638.536 -1614.1 -101.278 75.6506 98.62 2.22635 0.617653 2.52284 2.22977 0.455921 2.557 2.24997 0.0104584 2.59728 2.2408 0.420382 2.56308 -6.65377 10.187 2.97412 -6.62876 16.7486 4.99378 -0.0 0.0 -0.0 -0.772956 19.9974 1.1975 -25.9513 3.11723 69.7013 0.346881 -9.75038 0.029587 71.9924 -2.94969 -8.09555 -6.05196 29.2031 -21.6809 -0.0 0.0 -0.0 11.0374 3.2692 -21.9923 14.1518 16.3621 -80.3339 1.87509 42.8836 -0.736473 -12.7104 0.617051 -1.5001 1.00126 4.13685 -4.99588 0.0 0.0 0.0 46.0646 9.6311 -4.93288 -10.3227 0.285464 1.55634 -10.6366 -27.4898 1.96674 0.298034 -0.0 -0.0 -0.0 0.0 -0.0 -9.74859 -12.6109 2.50045 -11.6971 -0.302174 -1.76656 27.5173 18.4114 3.98253 -20.482 0.0 0.0 0.0 0.0 0.0 
1747.76 637.231 -1610.27 -100.87 75.5915 98.5687 2.28824 0.485985 2.49173 2.29163 0.326496 2.51758 2.30569 -0.107942 2.53636 2.29683 0.293853 2.5216 -7.39741 11.3703 3.75709 -7.38434 18.5011 6.11719 -0.0 0.0 -0.0 -0.820052 20.0995 1.14213 -24.5056 3.569 69.0082 0.408109 -11.4294 0.0408405 73.7558 -3.13911 -8.21935 -5.55373 28.9141 -19.0087 -0.0 0.0 -0.0 11.2344 1.85121 -22.3456 12.1373 15.0902 -80.1624 1.77806 41.3698 -0.671383 -14.4693 0.728205 -1.69584 0.724685 3.01092 -3.59965 0.0 0.0 0.0 44.2489 9.81145 -4.70498 -12.5523 0.310024 1.89755 -4.05465 -26.7436 0.733524 3.35156 -0.0 -0.0 -0.0 0.0 -0.0 -10.3426 -13.6818 2.37301 -12.4661 -0.309321 -1.88434 24.193 17.8518 3.55767 -23.8908 0.0 0.0 0.0 0.0 0.0 
1724.13 638.792 -1604.76 -100.929 76.3834 98.435 2.3368 0.489698 2.63557 2.34061 0.321058 2.66137 2.35513 -0.135548 2.67722 2.34525 0.288817 2.66506 -6.73927 9.45931 4.14946 -6.69766 14.553 6.02991 -0.0 0.0 -0.0 -0.782845 19.0039 1.04999 -23.5151 3.42713 68.8967 0.448161 -12.5172 0.04915 74.1924 -3.1866 -8.2491 -6.40041 29.3163 -23.6556 -0.0 0.0 -0.0 11.0393 2.57363 -21.965 9.19258 13.6251 -80.7062 1.78302 41.4489 -0.674662 -15.1314 0.771603 -1.76864 0.378802 1.2412 -2.01365 0.0 0.0 0.0 43.5893 9.76619 -4.77184 -16.7807 0.320075 2.54607 0.832026 -26.7998 -0.148668 4.00791 -0.0 -0.0 -0.0 0.0 -0.0 -10.5103 -13.5355 3.25822 -15.8292 -0.321987 -2.4001 19.4355 14.4638 2.86134 -24.0316 0.0 0.0 0.0 0.0 0.0 
1697.22 638.508 -1597.91 -102.681 76.9807 100.407 2.31713 0.491381 2.49367 2.32052 0.331759 2.51986 2.3348 -0.101849 2.53955 2.32593 0.300373 2.52379 -6.35726 10.0777 3.76139 -6.3136 15.929 5.72166 -0.0 0.0 -0.0 -0.0596387 20.6617 2.31933 -22.289 1.64954 66.7569 0.503101 -13.9944 0.0617487 75.6052 -3.34179 -8.34288 -6.42936 29.3156 -23.8302 -0.0 0.0 -0.0 11.5887 1.82714 -23.1043 6.91192 8.41592 -78.5929 1.55767 37.6521 -0.531094 -18.0898 0.975693 -2.08763 0.303836 1.75067 -1.29796 0.0 0.0 0.0 42.6754 10.038 -4.62122 -21.2449 0.278765 3.22964 6.07739 -25.1274 -1.04601 3.65282 -0.0 -0.0 -0.0 0.0 -0.0 -9.96553 -14.3368 3.2772 -19.0303 -0.305916 -2.89093 13.9816 11.6635 2.07445 -26.4645 0.0 0.0 0.0 0.0 0.0 
1680.62 641.852 -1592.48 -107.526 77.2466 105.838 2.265 0.374814 2.36018 2.26807 0.223913 2.37924 2.27708 -0.186677 2.38244 2.26921 0.191819 2.38204 -7.81074 8.97124 1.40056 -7.82956 15.7459 3.32641 -0.0 0.0 -0.0 0.32193 21.1552 2.92239 -20.1474 -0.409758 66.4293 0.570097 -15.7703 0.0789579 76.6219 -3.45487 -8.40799 -6.54857 29.363 -24.5067 -0.0 0.0 -0.0 11.5909 2.39095 -23.1419 5.09003 5.11688 -77.7949 1.38084 34.3713 -0.427081 -20.091 1.12301 -2.29733 -0.0139295 -0.808098 -0.247404 0.0 0.0 0.0 42.0297 10.1344 -4.25239 -24.562 0.213663 3.73442 10.0634 -21.9953 -1.64893 3.88538 -0.0 -0.0 -0.0 0.0 -0.0 -9.70848 -14.844 2.69188 -22.0888 -0.264978 -3.35839 10.7389 8.48394 1.58633 -27.7654 0.0 0.0 0.0 0.0 0.0 
1650.22 637.676 -1585.92 -117.89 78.2284 116.77 2.28058 0.262125 2.0916 2.283 0.12853 2.10403 2.28745 -0.233201 2.09502 2.28134 0.100519 2.10556 -9.10643 6.74091 1.32072 -9.13363 11.7351 2.88403 -0.0 0.0 -0.0 0.664202 21.9943 3.49046 -19.2109 -2.81426 65.6041 0.674906 -18.4863 0.109834 77.4443 -3.54717 -8.45919 -6.68346 29.3361 -25.3518 -0.0 0.0 -0.0 11.0631 1.86553 -21.9805 3.19895 0.460115 -77.5001 1.12666 29.1657 -0.293123 -20.7183 1.17069 -2.36199 -0.106589 -1.01778 0.281395 0.0 0.0 0.0 39.2431 9.48703 -4.30277 -29.2067 0.0736319 4.43329 17.0804 -20.3725 -2.6682 3.65961 -0.0 -0.0 -0.0 0.0 -0.0 -9.53203 -11.2877 1.97456 -28.8878 -0.0850579 -4.38567 4.46921 1.80572 0.656434 -31.8769 0.0 0.0 0.0 0.0 0.0 
